<svg width="15" height="15" viewBox="0 0 15 15" fill="none" xmlns="http://www.w3.org/2000/svg">
<path d="M7.5 0.109375C3.48633 0.109375 0.234375 3.39062 0.234375 7.375C0.234375 11.3887 3.48633 14.6406 7.5 14.6406C11.4844 14.6406 14.7656 11.3887 14.7656 7.375C14.7656 3.39062 11.4844 0.109375 7.5 0.109375ZM7.5 1.51562C10.7227 1.51562 13.3594 4.15234 13.3594 7.375C13.3594 10.627 10.7227 13.2344 7.5 13.2344C4.24805 13.2344 1.64062 10.627 1.64062 7.375C1.64062 4.15234 4.24805 1.51562 7.5 1.51562ZM11.6016 5.35352L10.9277 4.67969C10.8105 4.5332 10.5762 4.5332 10.4297 4.67969L6.29883 8.78125L4.54102 7.02344C4.39453 6.87695 4.18945 6.87695 4.04297 7.02344L3.36914 7.66797C3.25195 7.81445 3.25195 8.04883 3.36914 8.16602L6.03516 10.8613C6.18164 11.0078 6.38672 11.0078 6.5332 10.8613L11.6016 5.85156C11.7188 5.70508 11.7188 5.4707 11.6016 5.35352Z" fill="#F17228"/>
</svg>
